<svg width="82" height="114" fill="none" xmlns="http://www.w3.org/2000/svg"><g clip-path="url(#clip0_83_1701)"><g clip-path="url(#clip1_83_1701)"><path d="M43.761 15.697c-1.442 1.957-3.283-2.287-3.882 0-.112.426-.192.82-.264 1.198l-.053-.08c-1.382-1.895-2.54.226-4.576-1.039-.377-.235 3.223-1.122 2.784-1.088 0 0-3.224-1.51-4.983-3.981-1.76-2.47-1.428-6.968-.516-10.416l1.547.45c4.005 1.165 8.22 4.612 9.606 7.402 1.603 3.23.33 7.519.33 7.519-.195.173.156-.166.007.035z" fill="#3E7739"/><path d="M33.812 2.56a.524.524 0 01.757.042l.936 1.088a24.476 24.476 0 014.774 8.684.587.587 0 01-.032.429.544.544 0 01-.313.28.514.514 0 01-.41-.035.556.556 0 01-.266-.328 23.22 23.22 0 00-4.54-8.278l-.936-1.088a.581.581 0 01.03-.793z" fill="#396C34"/><path d="M40.67 81.768c18.564 0 33.613-15.77 33.613-35.226 0-19.454-15.05-35.225-33.614-35.225-18.564 0-33.613 15.771-33.613 35.225 0 19.455 15.05 35.226 33.614 35.226z" fill="url(#paint0_radial_83_1701)"/><path d="M51.105 80.042a30.355 30.355 0 002.433-.942c-8.237 2.124-16.936.906-24.352-3.411s-13-11.412-15.633-19.863c-2.633-8.452-2.119-17.633 1.439-25.704 3.557-8.07 9.895-14.433 17.742-17.811-.833.215-1.665.463-2.496.745-8.477 2.9-15.507 9.21-19.544 17.541C6.657 38.93 5.944 48.6 8.711 57.483s8.788 16.25 16.739 20.48c7.95 4.232 17.178 4.98 25.655 2.08z" fill="#FEBB12"/><path d="M60.3 61.331a3.687 3.687 0 011.62.07c.509.143.99.377 1.422.693.433.318.804.722 1.091 1.188.298.487.498 1.033.585 1.605.084.57.057 1.153-.077 1.713a4.422 4.422 0 01-.706 1.547c-4.93 5.731-10.958 9.214-18.087 10.447-8.453 1.463-16.15-.413-23.092-5.627-6.941-5.214-11.109-12.25-12.502-21.11-1.388-8.833.404-16.885 5.377-24.157 4.973-7.272 11.685-11.654 20.136-13.147 7.23-1.25 14.153.117 20.768 4.1.423.318.778.726 1.041 1.196.264.471.43.995.49 1.537a4.61 4.61 0 01-.04 1.733 4.375 4.375 0 01-.661 1.49c-.31.451-.704.833-1.158 1.122a4.052 4.052 0 01-1.52.603 4.062 4.062 0 01-2.976-.72 21.566 21.566 0 00-6.977-2.575 21.61 21.61 0 00-7.628 0c-6.212 1.074-11.157 4.3-14.836 9.678-3.635 5.313-4.94 11.226-3.915 17.738 1.025 6.512 4.076 11.685 9.152 15.52 5.099 3.832 10.768 5.209 17.009 4.13 5.125-.815 9.81-3.505 13.226-7.592A4.263 4.263 0 0160.3 61.33z" fill="url(#paint1_linear_83_1701)"/><path d="M53.677 54.363c.321-.103.66-.132.992-.083.314.043.619.144.9.298.282.155.531.369.733.627.215.268.373.581.463.918a2.719 2.719 0 01-.238 2.01c-2.416 3.705-5.99 6.409-10.108 7.644a17.844 17.844 0 01-7.264.683 18.058 18.058 0 01-6.96-2.287 18.902 18.902 0 01-5.591-4.909 19.9 19.9 0 01-3.37-6.779c-1.387-4.984-.83-10.341 1.547-14.896 2.378-4.555 6.384-7.935 11.137-9.397 4.241-1.303 8.483-1.016 12.727.862.275.16.516.378.706.64.19.263.326.564.398.885.1.336.134.69.1 1.04-.038.33-.134.65-.285.942a2.537 2.537 0 01-.615.762c-.261.216-.56.378-.88.475a2.432 2.432 0 01-1.831-.204 12.922 12.922 0 00-4.375-1.023 13.05 13.05 0 00-4.57.586 13.507 13.507 0 00-4.754 2.595 14.233 14.233 0 00-3.442 4.307 14.872 14.872 0 00-1.604 5.361c-.193 1.88-.03 3.782.48 5.596a14.497 14.497 0 004.082 6.735 13.482 13.482 0 006.877 3.423c2.554.44 5.175.113 7.56-.94 2.386-1.054 4.438-2.792 5.922-5.015a2.616 2.616 0 011.263-.856z" fill="#fff"/><path d="M1.372 89.225c3.846-4.581 15.607-2.873 21.783-7.1 1.323-.898 1.878-1.958 1.62.845-.519 4.754-6.332 6.657-10.144 6.764-1.207 2.495-4.96 21.088-1.838 22.138.413.215.846.111.912.413.053 1.327-4.903 3.118-5.922-2.118-.615-3.707-.33-18.018 3.604-19.83-3.276.042-6.282.43-7.353 2.079-.84 1.417.565 3.753 2.602 3.465 1.14-.215 1.858-.693 1.779-.215-.103.76-2.645 3.743-5.38 2.343-3.091-1.418-4.077-5.839-1.663-8.784z" fill="#255296"/><path d="M21.462 107.638c-2.645-.114-2.837-3.163-2.668-5.405.094-1.098.246-2.188.456-3.268a7.152 7.152 0 01-1.696.575c-.916.129-1.832-.156-2.146-1.164-.192-.717-.307-2.315.152-3.118.552-1.06 1.984-.295 2.073.287.301 1.618-2.1 3.545 2.315-.918a3.04 3.04 0 011.385-.884 1.8 1.8 0 011.248.253c.375.234.66.598.806 1.03.373 1.406-.867 6.209-.877 7.931 1.878-1.67 7.232-7.672 8.286-8.41 2.622-.27-5.697 13.157-9.334 13.091z" fill="#255296"/><path d="M43.95 99.856c-.936 1.538-2.127 3.298-3.876 4.043-1.207.458-2.37-.117-3.071-1.219a5.69 5.69 0 01-2.556 1.646 2.987 2.987 0 01-1.99-.301 3.194 3.194 0 01-1.396-1.515c-1.323-3.119.575-11.719 5.528-10.797.241.048.474.13.695.243a7.902 7.902 0 01.773-2.263c1.055-1.535 3.35 0 3.601 1.542v.925c-.271 2.332-1.114 4.55-1.352 7.159v.097c2.12-1.955 3.6-4.585 5.568-6.948 1.055-1.278 1.984-2.245 2.344-2.04 1.098 1.05-3.66 8.482-4.269 9.428zm-7.433-5.063c.36-1.109.568-2.079.109-1.971-2.176.755-2.976 4.14-2.976 6.34-.016.398.031.794.139 1.175h.03c1.196-1.51 2.053-3.537 2.698-5.544z" fill="#255296"/><path d="M59.619 86.092c-.453 3.015-2.249 12.003-5.922 13.67-2.077.797-3.578-1.293-3.8-1.875-.512-1.34-1.676-6.83-1.26-9.452.206-1.262 1.985-2.942 2.805 0 .463 1.93.737 5.197 1.422 7.051.195-.367.37-.665.568-1.001 1.654-2.797 2.86-5.867 4.758-9.075 1.482-2.488 1.782-1.826 1.429.682zm14.141 4.855c-1.464 1.889-3.065 3.59-4.906 4.744-3.23 1.733-6.454.658-6.9-3.919-.259-4.02 1.573-7.53 4.43-8.902 2.784-1.16 6.282-.714 4.86 3.625-1.127 2.443-3.098 3.853-5.756 3.811.022.324.103.64.238.932 1.574 3.091 8.52-4.643 10.726-7.702a.531.531 0 01.263-.206.506.506 0 01.329-.002c.846 1.185-2.596 6.621-3.284 7.62zm-8.22-1.365c.622-.63 1.925-1.732 2.355-2.266 3.878-4.716-1.99-1.424-2.354 2.266z" fill="#255296"/><path d="M80.717 94.98c0 .316.04.596-.033.693-.793.385-1.881-.655-2.599-1.69-1.197-1.685-1.382-3.743-1.18-5.836.506-5.77 1.832-11.549 2.314-17.498.076-.88.886-.122 1.148.228.892 1.279 1.3 4.18 1.352 4.851.569 6.269-1.733 11.906-1.002 19.252z" fill="#255296"/></g></g><defs><clipPath id="clip0_83_1701"><path fill="#fff" d="M0 0h82v114H0z"/></clipPath><clipPath id="clip1_83_1701"><path fill="#fff" d="M0 0h82v114H0z"/></clipPath><radialGradient id="paint0_radial_83_1701" cx="0" cy="0" r="1" gradientUnits="userSpaceOnUse" gradientTransform="matrix(109.09 0 0 114.322 29.398 13.25)"><stop stop-color="#FDD900"/><stop offset=".52" stop-color="#F78F1F"/><stop offset="1" stop-color="#FDD900"/></radialGradient><linearGradient id="paint1_linear_83_1701" x1="10.273" y1="42.765" x2="66.953" y2="49.205" gradientUnits="userSpaceOnUse"><stop stop-color="#F15A29"/><stop offset="1" stop-color="#F7941D"/></linearGradient></defs></svg>